<svg width="14" height="14" viewBox="0 0 14 14" fill="none" xmlns="http://www.w3.org/2000/svg">
<path d="M7.0242 8.82289C6.63436 9.21646 6.29552 9.55901 5.9494 9.90521C4.72522 11.1333 3.4974 12.3614 2.26593 13.5895C1.59919 14.2527 0.542607 14.0888 0.13819 13.2652C-0.113204 12.755 -0.0184756 12.1755 0.396871 11.7565C0.96524 11.1807 1.53725 10.6122 2.10926 10.0437C3.07112 9.08162 4.03298 8.11956 4.99483 7.15749C5.04219 7.11011 5.10413 7.08096 5.16607 7.03359C5.08956 6.94977 5.04584 6.90239 4.99847 6.85502C3.48282 5.33903 1.97082 3.8194 0.451522 2.30706C0.0908261 1.94629 -0.0731264 1.5272 0.0398187 1.01702C0.251135 0.0695246 1.41338 -0.320404 2.15663 0.310042C2.22585 0.368349 2.29143 0.433944 2.35337 0.49954C3.85081 1.9973 5.35188 3.49507 6.84932 4.99283C6.89668 5.04021 6.94404 5.08394 6.99869 5.1386C7.05335 5.08758 7.10071 5.04385 7.14807 4.99648C8.6783 3.46956 10.2049 1.939 11.7351 0.412079C12.318 -0.170992 13.2034 -0.127262 13.7098 0.492251C14.1033 0.97693 14.096 1.67662 13.6916 2.15401C13.637 2.2196 13.575 2.27791 13.5167 2.33986C12.0156 3.84491 10.5109 5.34632 9.0062 6.84773C8.95884 6.89511 8.8969 6.92426 8.83496 6.97163C8.91148 7.05545 8.9552 7.10282 9.00256 7.1502C10.5291 8.67712 12.0594 10.204 13.5859 11.7346C14.1652 12.3177 14.1252 13.2069 13.5058 13.7098C13.0212 14.1033 12.3217 14.096 11.8444 13.6915C11.7788 13.6369 11.7205 13.5749 11.6586 13.5166C10.1575 12.0152 8.65279 10.5101 7.15172 9.00874C7.108 8.95772 7.07521 8.89577 7.0242 8.82289Z" fill="#677698"/>
</svg>
