<svg width="16" height="16" viewBox="0 0 16 16" fill="none" xmlns="http://www.w3.org/2000/svg">
<circle cx="8" cy="8" r="8" fill="#7F89A7"/>
<path d="M6.58009 2.96659C6.58009 2.73227 6.7013 2.51392 6.94372 2.31155C7.19192 2.10385 7.46032 2 7.74892 2C8.04329 2 8.32612 2.08255 8.5974 2.24764C8.87446 2.41273 9.01299 2.63108 9.01299 2.90269C9.01299 3.17429 8.89755 3.40329 8.66667 3.58969C8.43579 3.77076 8.15296 3.86129 7.81818 3.86129C7.48341 3.86129 7.19192 3.77608 6.94372 3.60566C6.7013 3.43525 6.58009 3.22222 6.58009 2.96659ZM8.38961 12.992L7.64502 13C6.88889 13 6.42136 12.8935 6.24242 12.6805C6.16162 12.5846 6.12121 12.4701 6.12121 12.337C6.12121 12.1985 6.17893 12.1026 6.29437 12.0494C6.40981 11.9961 6.5368 11.9668 6.67532 11.9615C6.81962 11.9562 6.94949 11.9162 7.06493 11.8417C7.18038 11.7618 7.2381 11.6367 7.2381 11.4662V7.16848C7.2381 6.68385 7.03319 6.4229 6.62338 6.38562C6.58297 6.3803 6.53102 6.37497 6.46753 6.36964C6.40404 6.36432 6.35786 6.36166 6.329 6.36166C6.30014 6.35633 6.26263 6.351 6.21645 6.34568C6.17605 6.33503 6.1443 6.32438 6.12121 6.31373C6.1039 6.30307 6.08369 6.28976 6.06061 6.27378C6.0202 6.24716 6 6.1726 6 6.05011C6 5.92229 6.08658 5.79182 6.25974 5.65868C6.58874 5.4137 7.02742 5.29121 7.57576 5.29121C8.08369 5.29121 8.38095 5.30985 8.46753 5.34713C8.55988 5.38441 8.63781 5.42435 8.7013 5.46696C8.82251 5.54152 8.88312 5.68264 8.88312 5.89034V11.4662C8.88312 11.7751 9.06782 11.9402 9.43723 11.9615C9.81241 11.9775 10 12.1133 10 12.3689C10 12.6618 9.82684 12.8429 9.48052 12.9121C9.21501 12.9654 8.85137 12.992 8.38961 12.992Z" fill="white"/>
</svg>
