<svg width="49" height="49" viewBox="0 0 49 49" fill="none" xmlns="http://www.w3.org/2000/svg">
<circle cx="24.5" cy="24.5" r="23.75" fill="#FDFDFD" stroke="#0066CC" stroke-width="1.5"/>
<path d="M30.0067 29.8887C30.6578 30.3013 30.9834 30.5488 31.3554 30.7551C33.5878 32.0752 36.0063 32.199 37.5876 30.8788C39.2619 29.4349 39.4014 27.6197 38.6108 25.7632C37.7736 23.6592 35.8203 22.3803 33.4483 22.7103C32.3786 22.8753 31.1229 23.5767 30.5183 24.3605C29.03 26.2583 28.5184 28.6923 26.0534 29.9712C25.7279 30.1362 25.8209 31.0851 25.8209 31.6627C25.8674 35.7882 22.4723 38.9648 17.5889 39.3774C13.7287 39.7074 7.96158 36.9433 8.00809 33.1066C10.0545 33.9317 12.0078 35.0868 14.1937 35.4994C16.0076 35.8707 18.1935 35.7057 20.0073 35.1694C22.3793 34.468 23.4955 32.4465 23.2164 30.6313C22.9374 29.0636 22.2397 28.6511 18.6586 28.1147C18.426 27.2071 18.1935 26.217 17.9609 25.1031C18.333 25.0619 18.6121 24.9794 18.8911 24.9794C20.5189 24.8556 22.2862 24.8143 22.4258 22.7928C22.5653 21.1839 20.8445 19.2862 18.8446 19.4512C16.8912 19.6162 15.0774 20.5238 12.845 21.2251C12.4264 20.6476 11.7288 19.6987 11.0777 18.7498C13.9147 15.7795 18.5655 15.2019 21.9607 17.3884C25.0768 19.3687 25.3558 22.5453 22.6118 26.2583C23.4024 26.9183 24.1931 27.5784 25.3093 28.5273C25.6814 27.5372 25.8674 26.8358 26.1465 26.1758C26.5185 25.2269 26.7976 24.1955 27.4022 23.3292C28.8905 21.0601 30.9368 19.4924 34.1459 19.8225C37.262 20.1525 38.8474 21.793 40.0422 24.3543C41.3365 27.3572 40.8087 29.6169 40.0422 31.3315C39.2757 33.0462 36.4249 34.7981 34.3785 34.5093C31.681 34.138 30.1462 32.6115 30.0067 29.8887Z" fill="#303030"/>
<path d="M21.0312 14.0879C25.31 16.7283 29.0772 16.357 32.8909 14.0467C33.5886 15.0368 34.1932 15.8619 34.7978 16.687C30.2865 19.8224 22.9381 18.2135 21.0312 14.0879Z" fill="#303030"/>
<path d="M24.1094 11.9162C24.8775 10.9774 25.475 10.2946 26.2004 9.4411C27.0539 10.3373 27.6087 10.9347 28.2915 11.7028C27.6514 12.4283 27.0539 13.0684 26.2858 13.8792C25.5603 13.2391 24.9202 12.6417 24.1094 11.9162Z" fill="#EB1A6B"/>
</svg>
